<svg width="16" height="16" viewBox="0 0 16 16" fill="none" xmlns="http://www.w3.org/2000/svg">
<path d="M2 6.7586C2 6.36002 2 6.16073 2.04935 5.9772C2.09307 5.81463 2.16491 5.66173 2.26135 5.526C2.37022 5.37277 2.52135 5.25042 2.82359 5.00572L7.34513 1.345C7.57935 1.15538 7.69646 1.06056 7.82577 1.02412C7.93987 0.99196 8.06013 0.99196 8.17423 1.02412C8.30354 1.06056 8.42065 1.15538 8.65487 1.345L13.1764 5.00572C13.4787 5.25042 13.6298 5.37277 13.7386 5.526C13.8351 5.66173 13.9069 5.81463 13.9506 5.9772C14 6.16073 14 6.36002 14 6.7586V11.7793C14 12.5566 14 12.9453 13.8547 13.2422C13.7268 13.5033 13.5229 13.7157 13.272 13.8487C12.9868 14 12.6134 14 11.8667 14H4.13333C3.3866 14 3.01323 14 2.72801 13.8487C2.47713 13.7157 2.27316 13.5033 2.14532 13.2422C2 12.9453 2 12.5566 2 11.7793V6.7586Z" stroke="black" stroke-linecap="round" stroke-linejoin="round"/>
</svg>
