<svg width="40" height="40" viewBox="0 0 40 40" fill="none" xmlns="http://www.w3.org/2000/svg">
<path d="M27.8824 18.2V13.76C27.8824 11.7438 27.8824 10.7357 27.5169 9.96563C27.1954 9.28825 26.6825 8.73752 26.0516 8.39238C25.3344 8 24.3955 8 22.5176 8H15.3647C13.4869 8 12.548 8 11.8307 8.39238C11.1998 8.73752 10.6869 9.28825 10.3654 9.96563C10 10.7357 10 11.7438 10 13.76V26.24C10 28.2562 10 29.2643 10.3654 30.0344C10.6869 30.7118 11.1998 31.2625 11.8307 31.6076C12.548 32 13.4869 32 15.3647 32H18.9412M21.1765 18.8H14.4706M16.7059 23.6H14.4706M23.4118 14H14.4706M25.6471 30.8V23.6M22.2941 27.2H29" stroke="#687968" stroke-linecap="round" stroke-linejoin="round"/>
</svg>
